<svg width="81" height="48" viewBox="0 0 81 48" fill="none" xmlns="http://www.w3.org/2000/svg">
<g clip-path="url(#clip0_1_126)">
<path d="M69.6707 15.0379V7.96931L64.9096 11.5036L69.6707 15.0379Z" fill="#007976"/>
<path d="M59.6086 0.5V7.56644L64.9096 11.5036L69.6707 7.9693L59.6086 0.5Z" fill="#00A89C"/>
<path d="M69.6707 15.0379L64.9096 11.5036L59.6086 15.4408V22.5072L69.6707 15.0379Z" fill="#1A1A1A"/>
<path d="M65.2193 25.8477H59.6086V47.3585H65.2193V25.8477Z" fill="#1A1A1A"/>
<path d="M0 38.1753C0 31.3746 5.15838 25.863 11.5188 25.863L14.4463 25.8477V31.98H11.8936C8.43839 31.98 5.63714 34.9742 5.63714 38.6675V47.3606H0V38.1753Z" fill="#1A1A1A"/>
<path d="M69.7502 20.0334H75.3914V25.8455H80.3032V30.5318H75.3914V39.9392C75.4219 42.7571 78.2293 42.8769 80.2299 42.0646L81.002 46.6137C78.1295 47.794 74.3035 47.9769 71.9667 46.0279C70.9379 45.1699 70.4225 44.1181 70.1535 43.2079C69.4059 40.9867 69.7502 20.0312 69.7502 20.0312V20.0334Z" fill="#1A1A1A"/>
<path d="M34.4483 44.0615C32.1788 46.3546 29.5161 47.5 26.4622 47.5C23.4083 47.5 20.8821 46.4939 18.8876 44.4818C16.8931 42.4696 15.8948 39.7715 15.8948 36.3853C15.8948 32.9991 16.9114 30.3075 18.9426 28.3085C20.9738 26.3094 23.3757 25.3098 26.1423 25.3098C28.9089 25.3098 31.26 26.2027 33.1933 27.9883C35.1267 29.774 36.0924 32.226 36.0924 35.3444V38.5434H21.4281C21.6012 39.7171 22.1758 40.6753 23.1475 41.4222C24.1193 42.1691 25.2174 42.5415 26.4398 42.5415C28.4098 42.5415 30.0315 41.836 31.3027 40.4227L34.4442 44.0615H34.4483ZM29.0617 31.3049C28.2876 30.6124 27.3464 30.2662 26.2381 30.2662C25.1298 30.2662 24.1112 30.6255 23.1903 31.3463C22.2674 32.0649 21.7316 33.0405 21.5829 34.2643H30.4104C30.2861 32.986 29.8359 31.9996 29.0638 31.3049H29.0617Z" fill="#1A1A1A"/>
<path d="M36.7687 47.3585H43.3797L57.3574 25.8477H50.7465L36.7687 47.3585Z" fill="#1A1A1A"/>
<path d="M57.3574 47.3585H50.7465L36.7687 25.8477H43.3797L57.3574 47.3585Z" fill="#1A1A1A"/>
</g>
<defs>
<clipPath id="clip0_1_126">
<rect width="81" height="47" fill="white" transform="translate(0 0.5)"/>
</clipPath>
</defs>
</svg>
